# xmcd
# Track frame offsets:
# 150
# 4085
# 5454
# 12991
# 18263
# 22819
# 31369
# 37085
# 41861
# 45785
# 52733
# 71351
# 74875
# 85502
# 141673
# 147394
# 150982
# 156069
# 158166
# 163735
# 181455
#
# Disc length: 2546 seconds
# Revision: 0
# Processed by: cddbd v1.5.1PL2 Copyright (c) Steve Scherf et al.
# Submitted via: VisiTrax 2.9.10.220 - For more info visit www.synapsa.com
#
DISCID=0709f015
DTITLE=Ron White - You Can't Fix Stupid
DYEAR=2005
DGENRE=
TTITLE0=Intro
TTITLE1=Seeing Old Friends
TTITLE2=Landscaper
TTITLE3=Touring On the Bus
TTITLE4=Cheesewheel
TTITLE5=Michael Jackson
TTITLE6=Petticoat Junction
TTITLE7=Ft. Polk
TTITLE8=The Globe
TTITLE9=A Flipper
TTITLE10=Bachelorette Party
TTITLE11=Refill
TTITLE12=You Can't Fix Stupid
TTITLE13=Squirrel Man
TTITLE14=Chocolate
TTITLE15=Highway Delight
TTITLE16=Mile High Club
TTITLE17=Work Ethic
TTITLE18=High School
TTITLE19=Grandma In Texas
TTITLE20=Cousin Ray
EXTD=
EXTT0=
EXTT1=
EXTT2=
EXTT3=
EXTT4=
EXTT5=
EXTT6=
EXTT7=
EXTT8=
EXTT9=
EXTT10=
EXTT11=
EXTT12=
EXTT13=
EXTT14=
EXTT15=
EXTT16=
EXTT17=
EXTT18=
EXTT19=
EXTT20=
PLAYORDER=
